<svg width="127" height="126" viewBox="0 0 127 126" fill="none" xmlns="http://www.w3.org/2000/svg">
<path d="M110 20.5V3H37.5V82.5M37.5 82.5L3 123M37.5 82.5L83 123M110 82V56.5" stroke="black" stroke-width="6" stroke-linecap="round"/>
<path d="M105.042 38.5833C106.215 38.5833 107.167 37.6319 107.167 36.4583C107.167 35.2847 106.215 34.3333 105.042 34.3333C103.868 34.3333 102.917 35.2847 102.917 36.4583C102.917 37.6319 103.868 38.5833 105.042 38.5833Z" fill="#0F0F0F"/>
<path d="M117.083 36.4583C117.083 37.6319 116.132 38.5833 114.958 38.5833C113.785 38.5833 112.833 37.6319 112.833 36.4583C112.833 35.2847 113.785 34.3333 114.958 34.3333C116.132 34.3333 117.083 35.2847 117.083 36.4583Z" fill="#0F0F0F"/>
<path d="M114.405 46.3166C114.76 47.0044 115.603 47.281 116.297 46.9337C116.997 46.5838 117.28 45.733 116.93 45.0331C116.814 44.8002 116.665 44.5819 116.509 44.374C116.25 44.0287 115.859 43.584 115.309 43.1437C114.19 42.249 112.466 41.4167 109.997 41.4167C107.527 41.4167 105.803 42.249 104.685 43.1437C104.134 43.584 103.743 44.0287 103.484 44.374C103.328 44.5826 103.186 44.8009 103.064 45.0316C102.717 45.7222 103.005 46.5882 103.696 46.9337C104.391 47.281 105.234 47.0044 105.589 46.3166C105.608 46.2814 105.875 45.8199 106.455 45.3563C107.107 44.8344 108.216 44.25 109.997 44.25C111.777 44.25 112.886 44.8344 113.539 45.3563C114.119 45.8199 114.385 46.2814 114.405 46.3166Z" fill="#0F0F0F"/>
<path fill-rule="evenodd" clip-rule="evenodd" d="M110 55.5833C118.606 55.5833 125.583 48.6064 125.583 40C125.583 31.3936 118.606 24.4167 110 24.4167C101.394 24.4167 94.4167 31.3936 94.4167 40C94.4167 48.6064 101.394 55.5833 110 55.5833ZM110 52.7404C102.964 52.7404 97.2597 47.0363 97.2597 40C97.2597 32.9637 102.964 27.2597 110 27.2597C117.036 27.2597 122.74 32.9637 122.74 40C122.74 47.0363 117.036 52.7404 110 52.7404Z" fill="#0F0F0F"/>
</svg>
