<svg width="138" height="126" viewBox="0 0 138 126" fill="none" xmlns="http://www.w3.org/2000/svg">
<path d="M110 20.5V3H37.5V82.5M37.5 82.5L3 123M37.5 82.5L83 123M110 56V80L88 99M110 56L134.5 64M110 56L88 64" stroke="black" stroke-width="6" stroke-linecap="round"/>
<path fill-rule="evenodd" clip-rule="evenodd" d="M110 49.9167C112.347 49.9167 114.25 48.0139 114.25 45.6667C114.25 43.3194 112.347 41.4167 110 41.4167C107.653 41.4167 105.75 43.3194 105.75 45.6667C105.75 48.0139 107.653 49.9167 110 49.9167ZM110 47.2294C109.137 47.2294 108.437 46.5297 108.437 45.6667C108.437 44.8036 109.137 44.1039 110 44.1039C110.863 44.1039 111.563 44.8036 111.563 45.6667C111.563 46.5297 110.863 47.2294 110 47.2294Z" fill="#0F0F0F"/>
<path d="M107.167 36.4583C107.167 37.6319 106.215 38.5833 105.042 38.5833C103.868 38.5833 102.917 37.6319 102.917 36.4583C102.917 35.2847 103.868 34.3333 105.042 34.3333C106.215 34.3333 107.167 35.2847 107.167 36.4583Z" fill="#0F0F0F"/>
<path d="M114.958 38.5833C116.132 38.5833 117.083 37.6319 117.083 36.4583C117.083 35.2847 116.132 34.3333 114.958 34.3333C113.785 34.3333 112.833 35.2847 112.833 36.4583C112.833 37.6319 113.785 38.5833 114.958 38.5833Z" fill="#0F0F0F"/>
<path fill-rule="evenodd" clip-rule="evenodd" d="M110 55.5833C118.606 55.5833 125.583 48.6064 125.583 40C125.583 31.3936 118.606 24.4167 110 24.4167C101.394 24.4167 94.4167 31.3936 94.4167 40C94.4167 48.6064 101.394 55.5833 110 55.5833ZM110 52.7404C102.964 52.7404 97.2597 47.0363 97.2597 40C97.2597 32.9637 102.964 27.2597 110 27.2597C117.036 27.2597 122.74 32.9637 122.74 40C122.74 47.0363 117.036 52.7404 110 52.7404Z" fill="#0F0F0F"/>
</svg>
