<svg width="138" height="126" viewBox="0 0 138 126" fill="none" xmlns="http://www.w3.org/2000/svg">
<path d="M110 20.5V3H37.5V82.5M37.5 82.5L3 123M37.5 82.5L83 123M110 80V56L134.5 64" stroke="black" stroke-width="6" stroke-linecap="round"/>
<path d="M106.042 38.5833C107.215 38.5833 108.167 37.6319 108.167 36.4583C108.167 35.2847 107.215 34.3333 106.042 34.3333C104.868 34.3333 103.917 35.2847 103.917 36.4583C103.917 37.6319 104.868 38.5833 106.042 38.5833Z" fill="#0F0F0F"/>
<path d="M118.083 36.4583C118.083 37.6319 117.132 38.5833 115.958 38.5833C114.785 38.5833 113.833 37.6319 113.833 36.4583C113.833 35.2847 114.785 34.3333 115.958 34.3333C117.132 34.3333 118.083 35.2847 118.083 36.4583Z" fill="#0F0F0F"/>
<path d="M105.333 42.8333C104.551 42.8333 103.917 43.4676 103.917 44.25C103.917 45.0324 104.551 45.6667 105.333 45.6667H116.665C117.448 45.6667 118.083 45.0324 118.083 44.25C118.083 43.4676 117.449 42.8333 116.667 42.8333H105.333Z" fill="#0F0F0F"/>
<path fill-rule="evenodd" clip-rule="evenodd" d="M111 55.5833C119.606 55.5833 126.583 48.6064 126.583 40C126.583 31.3936 119.606 24.4167 111 24.4167C102.394 24.4167 95.4167 31.3936 95.4167 40C95.4167 48.6064 102.394 55.5833 111 55.5833ZM111 52.7404C103.964 52.7404 98.2597 47.0363 98.2597 40C98.2597 32.9637 103.964 27.2597 111 27.2597C118.036 27.2597 123.74 32.9637 123.74 40C123.74 47.0363 118.036 52.7404 111 52.7404Z" fill="#0F0F0F"/>
</svg>
