<svg width="138" height="126" viewBox="0 0 138 126" fill="none" xmlns="http://www.w3.org/2000/svg">
<path d="M110 20.5V3H37.5V82.5M37.5 82.5L3 123M37.5 82.5L83 123M110 80V56M110 56L134.5 64M110 56L88 64" stroke="black" stroke-width="6" stroke-linecap="round"/>
<path d="M105.042 38.5833C106.215 38.5833 107.167 37.6319 107.167 36.4583C107.167 35.2847 106.215 34.3333 105.042 34.3333C103.868 34.3333 102.917 35.2847 102.917 36.4583C102.917 37.6319 103.868 38.5833 105.042 38.5833Z" fill="#0F0F0F"/>
<path d="M117.083 36.4583C117.083 37.6319 116.132 38.5833 114.958 38.5833C113.785 38.5833 112.833 37.6319 112.833 36.4583C112.833 35.2847 113.785 34.3333 114.958 34.3333C116.132 34.3333 117.083 35.2847 117.083 36.4583Z" fill="#0F0F0F"/>
<path d="M102.283 45.5171C102.971 45.8609 103.804 45.5931 104.165 44.9202C104.489 44.4104 105.191 44.25 105.75 44.25C106.384 44.25 106.626 44.4116 107.082 44.7159L107.089 44.7205C107.691 45.1217 108.512 45.6667 110 45.6667C111.488 45.6667 112.309 45.1217 112.911 44.7205L112.917 44.7159C113.374 44.4116 113.616 44.25 114.25 44.25C114.809 44.25 115.511 44.4104 115.835 44.9202C116.196 45.5931 117.03 45.8609 117.717 45.5171C118.399 45.1761 118.69 44.2905 118.347 43.6102C118.281 43.479 118.207 43.3581 118.073 43.1786C117.913 42.9662 117.677 42.6986 117.349 42.4354C116.673 41.8948 115.657 41.4167 114.25 41.4167C112.762 41.4167 111.941 41.9617 111.339 42.3629L111.333 42.3674C110.876 42.6717 110.634 42.8333 110 42.8333C109.366 42.8333 109.124 42.6717 108.667 42.3674L108.661 42.3629C108.059 41.9617 107.238 41.4167 105.75 41.4167C104.343 41.4167 103.327 41.8948 102.651 42.4354C102.323 42.6986 102.087 42.9662 101.927 43.1786C101.792 43.3595 101.718 43.481 101.651 43.6133C101.307 44.2977 101.598 45.1745 102.283 45.5171Z" fill="#0F0F0F"/>
<path fill-rule="evenodd" clip-rule="evenodd" d="M110 55.5833C118.606 55.5833 125.583 48.6064 125.583 40C125.583 31.3936 118.606 24.4167 110 24.4167C101.394 24.4167 94.4167 31.3936 94.4167 40C94.4167 48.6064 101.394 55.5833 110 55.5833ZM110 52.7404C102.964 52.7404 97.2597 47.0363 97.2597 40C97.2597 32.9637 102.964 27.2597 110 27.2597C117.036 27.2597 122.74 32.9637 122.74 40C122.74 47.0363 117.036 52.7404 110 52.7404Z" fill="#0F0F0F"/>
</svg>
