<svg width="138" height="126" viewBox="0 0 138 126" fill="none" xmlns="http://www.w3.org/2000/svg">
<path d="M110 20.5V3H37.5V82.5M37.5 82.5L3 123M37.5 82.5L83 123M110 80V56M110 80L88 99M110 80L134.5 99M110 56L134.5 64M110 56L88 64" stroke="black" stroke-width="6" stroke-linecap="round"/>
<path d="M104.333 42.8333C103.551 42.8333 102.917 43.4676 102.917 44.25C102.917 45.0324 103.551 45.6667 104.333 45.6667H115.665C116.448 45.6667 117.083 45.0324 117.083 44.25C117.083 43.4676 116.449 42.8333 115.667 42.8333H104.333Z" fill="#0F0F0F"/>
<path d="M108.164 33.3309C107.612 32.7786 106.716 32.7786 106.163 33.3309L105.038 34.4559L103.92 33.338C103.367 32.7857 102.471 32.7857 101.919 33.338C101.366 33.8903 101.366 34.7858 101.919 35.3381L103.037 36.456L101.914 37.5782C101.362 38.1304 101.362 39.0259 101.914 39.5783C102.467 40.1306 103.363 40.1306 103.915 39.5783L105.038 38.4561L106.168 39.5858C106.721 40.1381 107.616 40.1381 108.169 39.5858C108.721 39.0334 108.721 38.1379 108.169 37.5857L107.039 36.456L108.164 35.331C108.717 34.7787 108.717 33.8832 108.164 33.3309Z" fill="#0F0F0F"/>
<path d="M116.08 33.3309C116.633 32.7786 117.528 32.7786 118.081 33.3309C118.633 33.8832 118.633 34.7787 118.081 35.331L116.955 36.456L118.086 37.5857C118.638 38.1379 118.638 39.0334 118.086 39.5858C117.533 40.1381 116.637 40.1381 116.085 39.5858L114.955 38.4561L113.832 39.5783C113.279 40.1306 112.384 40.1306 111.831 39.5783C111.279 39.0259 111.279 38.1304 111.831 37.5782L112.954 36.456L111.835 35.3381C111.283 34.7858 111.283 33.8903 111.835 33.338C112.388 32.7857 113.284 32.7857 113.836 33.338L114.955 34.4559L116.08 33.3309Z" fill="#0F0F0F"/>
<path fill-rule="evenodd" clip-rule="evenodd" d="M110 55.5833C118.606 55.5833 125.583 48.6064 125.583 40C125.583 31.3936 118.606 24.4167 110 24.4167C101.394 24.4167 94.4167 31.3936 94.4167 40C94.4167 48.6064 101.394 55.5833 110 55.5833ZM110 52.7404C102.964 52.7404 97.2597 47.0363 97.2597 40C97.2597 32.9637 102.964 27.2597 110 27.2597C117.036 27.2597 122.74 32.9637 122.74 40C122.74 47.0363 117.036 52.7404 110 52.7404Z" fill="#0F0F0F"/>
</svg>
