<svg width="127" height="126" viewBox="0 0 127 126" fill="none" xmlns="http://www.w3.org/2000/svg">
<path d="M110 20.5V3H37.5V82.5M37.5 82.5L3 123M37.5 82.5L83 123" stroke="black" stroke-width="6" stroke-linecap="round"/>
<path d="M105.042 38.5833C106.215 38.5833 107.167 37.6319 107.167 36.4583C107.167 35.2847 106.215 34.3333 105.042 34.3333C103.868 34.3333 102.917 35.2847 102.917 36.4583C102.917 37.6319 103.868 38.5833 105.042 38.5833Z" fill="#0F0F0F"/>
<path d="M117.083 36.4583C117.083 37.6319 116.132 38.5833 114.958 38.5833C113.785 38.5833 112.833 37.6319 112.833 36.4583C112.833 35.2847 113.785 34.3333 114.958 34.3333C116.132 34.3333 117.083 35.2847 117.083 36.4583Z" fill="#0F0F0F"/>
<path d="M105.592 42.1837C105.237 41.4959 104.394 41.2193 103.7 41.5666C103 41.9165 102.717 42.7675 103.067 43.4672C103.183 43.7001 103.332 43.9184 103.488 44.1263C103.747 44.4717 104.138 44.9164 104.688 45.3566C105.807 46.2513 107.531 47.0836 110 47.0836C112.469 47.0836 114.194 46.2513 115.312 45.3566C115.863 44.9164 116.254 44.4717 116.513 44.1263C116.669 43.9176 116.811 43.6993 116.933 43.4687C117.28 42.7781 116.992 41.9121 116.3 41.5666C115.606 41.2193 114.763 41.4959 114.408 42.1837C114.389 42.2189 114.122 42.6803 113.542 43.1442C112.89 43.6659 111.781 44.2503 110 44.2503C108.219 44.2503 107.111 43.6659 106.458 43.1442C105.879 42.6803 105.612 42.2189 105.592 42.1837Z" fill="#0F0F0F"/>
<path fill-rule="evenodd" clip-rule="evenodd" d="M110 55.5833C118.606 55.5833 125.583 48.6064 125.583 40C125.583 31.3936 118.606 24.4167 110 24.4167C101.394 24.4167 94.4167 31.3936 94.4167 40C94.4167 48.6064 101.394 55.5833 110 55.5833ZM110 52.7404C102.964 52.7404 97.2597 47.0363 97.2597 40C97.2597 32.9637 102.964 27.2597 110 27.2597C117.036 27.2597 122.74 32.9637 122.74 40C122.74 47.0363 117.036 52.7404 110 52.7404Z" fill="#0F0F0F"/>
</svg>
